<?xml version="1.0" encoding="UTF-8"?>
<svg xmlns="http://www.w3.org/2000/svg" xmlns:xlink="http://www.w3.org/1999/xlink" width="792pt" height="57pt" viewBox="0 0 792 57" version="1.1">
<defs>
<clipPath id="clip1">
  <path d="M 3.488281 2 L 7 2 L 7 52 L 3.488281 52 Z "/>
</clipPath>
</defs>
<g id="surface486">
<rect x="0" y="0" width="792" height="57" style="fill:rgb(100%,100%,100%);fill-opacity:1;stroke:none;"/>
<g clip-path="url(#clip1)" clip-rule="nonzero">
<path style=" stroke:none;fill-rule:nonzero;fill:rgb(27.45098%,4.313725%,36.862745%);fill-opacity:1;" d="M 3.792969 51.082031 L 6.847656 51.082031 L 6.847656 2.433594 L 3.792969 2.433594 Z "/>
</g>
<path style=" stroke:none;fill-rule:nonzero;fill:rgb(27.45098%,3.137255%,36.078431%);fill-opacity:1;" d="M 6.847656 51.082031 L 9.902344 51.082031 L 9.902344 2.433594 L 6.847656 2.433594 Z "/>
<path style=" stroke:none;fill-rule:nonzero;fill:rgb(27.843137%,5.098039%,37.647059%);fill-opacity:1;" d="M 9.898438 51.082031 L 12.953125 51.082031 L 12.953125 2.433594 L 9.898438 2.433594 Z "/>
<path style=" stroke:none;fill-rule:nonzero;fill:rgb(27.45098%,3.529412%,36.470588%);fill-opacity:1;" d="M 12.953125 51.082031 L 16.007812 51.082031 L 16.007812 2.433594 L 12.953125 2.433594 Z "/>
<path style=" stroke:none;fill-rule:nonzero;fill:rgb(27.843137%,5.098039%,37.647059%);fill-opacity:1;" d="M 16.007812 51.082031 L 19.0625 51.082031 L 19.0625 2.433594 L 16.007812 2.433594 Z "/>
<path style=" stroke:none;fill-rule:nonzero;fill:rgb(27.843137%,5.490196%,38.039216%);fill-opacity:1;" d="M 19.0625 51.082031 L 22.117188 51.082031 L 22.117188 2.433594 L 19.0625 2.433594 Z "/>
<path style=" stroke:none;fill-rule:nonzero;fill:rgb(27.45098%,4.313725%,36.862745%);fill-opacity:1;" d="M 22.117188 51.082031 L 25.171875 51.082031 L 25.171875 2.433594 L 22.117188 2.433594 Z "/>
<path style=" stroke:none;fill-rule:nonzero;fill:rgb(27.843137%,7.058824%,39.607843%);fill-opacity:1;" d="M 25.167969 51.082031 L 28.222656 51.082031 L 28.222656 2.433594 L 25.167969 2.433594 Z "/>
<path style=" stroke:none;fill-rule:nonzero;fill:rgb(27.843137%,5.098039%,37.647059%);fill-opacity:1;" d="M 28.222656 51.082031 L 31.277344 51.082031 L 31.277344 2.433594 L 28.222656 2.433594 Z "/>
<path style=" stroke:none;fill-rule:nonzero;fill:rgb(27.843137%,7.058824%,39.607843%);fill-opacity:1;" d="M 31.277344 51.082031 L 34.332031 51.082031 L 34.332031 2.433594 L 31.277344 2.433594 Z "/>
<path style=" stroke:none;fill-rule:nonzero;fill:rgb(27.843137%,4.705882%,37.254902%);fill-opacity:1;" d="M 34.332031 51.082031 L 37.386719 51.082031 L 37.386719 2.433594 L 34.332031 2.433594 Z "/>
<path style=" stroke:none;fill-rule:nonzero;fill:rgb(27.843137%,6.666667%,39.215686%);fill-opacity:1;" d="M 37.386719 51.082031 L 40.441406 51.082031 L 40.441406 2.433594 L 37.386719 2.433594 Z "/>
<path style=" stroke:none;fill-rule:nonzero;fill:rgb(27.45098%,3.137255%,36.078431%);fill-opacity:1;" d="M 40.4375 51.082031 L 43.492188 51.082031 L 43.492188 2.433594 L 40.4375 2.433594 Z "/>
<path style=" stroke:none;fill-rule:nonzero;fill:rgb(27.843137%,6.27451%,38.823529%);fill-opacity:1;" d="M 43.492188 51.082031 L 46.546875 51.082031 L 46.546875 2.433594 L 43.492188 2.433594 Z "/>
<path style=" stroke:none;fill-rule:nonzero;fill:rgb(27.843137%,6.666667%,39.215686%);fill-opacity:1;" d="M 46.546875 51.082031 L 49.601562 51.082031 L 49.601562 2.433594 L 46.546875 2.433594 Z "/>
<path style=" stroke:none;fill-rule:nonzero;fill:rgb(28.235294%,7.843137%,40.392157%);fill-opacity:1;" d="M 49.601562 51.082031 L 52.65625 51.082031 L 52.65625 2.433594 L 49.601562 2.433594 Z "/>
<path style=" stroke:none;fill-rule:nonzero;fill:rgb(27.843137%,6.27451%,38.823529%);fill-opacity:1;" d="M 52.65625 51.082031 L 55.710938 51.082031 L 55.710938 2.433594 L 52.65625 2.433594 Z "/>
<path style=" stroke:none;fill-rule:nonzero;fill:rgb(28.235294%,9.019608%,41.176471%);fill-opacity:1;" d="M 55.707031 51.082031 L 58.761719 51.082031 L 58.761719 2.433594 L 55.707031 2.433594 Z "/>
<path style=" stroke:none;fill-rule:nonzero;fill:rgb(28.235294%,7.843137%,40.392157%);fill-opacity:1;" d="M 58.761719 51.082031 L 61.816406 51.082031 L 61.816406 2.433594 L 58.761719 2.433594 Z "/>
<path style=" stroke:none;fill-rule:nonzero;fill:rgb(28.235294%,7.843137%,40.392157%);fill-opacity:1;" d="M 61.816406 51.082031 L 64.871094 51.082031 L 64.871094 2.433594 L 61.816406 2.433594 Z "/>
<path style=" stroke:none;fill-rule:nonzero;fill:rgb(28.235294%,10.196078%,42.352941%);fill-opacity:1;" d="M 64.871094 51.082031 L 67.925781 51.082031 L 67.925781 2.433594 L 64.871094 2.433594 Z "/>
<path style=" stroke:none;fill-rule:nonzero;fill:rgb(27.843137%,7.45098%,39.607843%);fill-opacity:1;" d="M 67.925781 51.082031 L 70.980469 51.082031 L 70.980469 2.433594 L 67.925781 2.433594 Z "/>
<path style=" stroke:none;fill-rule:nonzero;fill:rgb(28.235294%,9.019608%,41.176471%);fill-opacity:1;" d="M 70.976562 51.082031 L 74.03125 51.082031 L 74.03125 2.433594 L 70.976562 2.433594 Z "/>
<path style=" stroke:none;fill-rule:nonzero;fill:rgb(28.235294%,10.588235%,42.745098%);fill-opacity:1;" d="M 74.03125 51.082031 L 77.085938 51.082031 L 77.085938 2.433594 L 74.03125 2.433594 Z "/>
<path style=" stroke:none;fill-rule:nonzero;fill:rgb(28.235294%,9.803922%,41.960784%);fill-opacity:1;" d="M 77.085938 51.082031 L 80.140625 51.082031 L 80.140625 2.433594 L 77.085938 2.433594 Z "/>
<path style=" stroke:none;fill-rule:nonzero;fill:rgb(28.235294%,12.156863%,43.921569%);fill-opacity:1;" d="M 80.140625 51.082031 L 83.195312 51.082031 L 83.195312 2.433594 L 80.140625 2.433594 Z "/>
<path style=" stroke:none;fill-rule:nonzero;fill:rgb(28.235294%,9.803922%,41.960784%);fill-opacity:1;" d="M 83.191406 51.082031 L 86.246094 51.082031 L 86.246094 2.433594 L 83.191406 2.433594 Z "/>
<path style=" stroke:none;fill-rule:nonzero;fill:rgb(28.235294%,12.54902%,44.313725%);fill-opacity:1;" d="M 86.246094 51.082031 L 89.300781 51.082031 L 89.300781 2.433594 L 86.246094 2.433594 Z "/>
<path style=" stroke:none;fill-rule:nonzero;fill:rgb(28.235294%,10.588235%,42.745098%);fill-opacity:1;" d="M 89.300781 51.082031 L 92.355469 51.082031 L 92.355469 2.433594 L 89.300781 2.433594 Z "/>
<path style=" stroke:none;fill-rule:nonzero;fill:rgb(28.235294%,11.764706%,43.529412%);fill-opacity:1;" d="M 92.355469 51.082031 L 95.410156 51.082031 L 95.410156 2.433594 L 92.355469 2.433594 Z "/>
<path style=" stroke:none;fill-rule:nonzero;fill:rgb(28.235294%,12.54902%,44.313725%);fill-opacity:1;" d="M 95.410156 51.082031 L 98.464844 51.082031 L 98.464844 2.433594 L 95.410156 2.433594 Z "/>
<path style=" stroke:none;fill-rule:nonzero;fill:rgb(28.235294%,10.980392%,43.137255%);fill-opacity:1;" d="M 98.460938 51.082031 L 101.515625 51.082031 L 101.515625 2.433594 L 98.460938 2.433594 Z "/>
<path style=" stroke:none;fill-rule:nonzero;fill:rgb(28.235294%,12.54902%,44.313725%);fill-opacity:1;" d="M 101.515625 51.082031 L 104.570312 51.082031 L 104.570312 2.433594 L 101.515625 2.433594 Z "/>
<path style=" stroke:none;fill-rule:nonzero;fill:rgb(28.235294%,12.54902%,44.313725%);fill-opacity:1;" d="M 104.570312 51.082031 L 107.625 51.082031 L 107.625 2.433594 L 104.570312 2.433594 Z "/>
<path style=" stroke:none;fill-rule:nonzero;fill:rgb(28.235294%,11.764706%,43.921569%);fill-opacity:1;" d="M 107.625 51.082031 L 110.679688 51.082031 L 110.679688 2.433594 L 107.625 2.433594 Z "/>
<path style=" stroke:none;fill-rule:nonzero;fill:rgb(28.235294%,13.333333%,45.490196%);fill-opacity:1;" d="M 110.679688 51.082031 L 113.734375 51.082031 L 113.734375 2.433594 L 110.679688 2.433594 Z "/>
<path style=" stroke:none;fill-rule:nonzero;fill:rgb(28.235294%,12.156863%,43.921569%);fill-opacity:1;" d="M 113.730469 51.082031 L 116.785156 51.082031 L 116.785156 2.433594 L 113.730469 2.433594 Z "/>
<path style=" stroke:none;fill-rule:nonzero;fill:rgb(28.235294%,13.72549%,45.490196%);fill-opacity:1;" d="M 116.785156 51.082031 L 119.839844 51.082031 L 119.839844 2.433594 L 116.785156 2.433594 Z "/>
<path style=" stroke:none;fill-rule:nonzero;fill:rgb(28.235294%,12.941176%,45.098039%);fill-opacity:1;" d="M 119.839844 51.082031 L 122.894531 51.082031 L 122.894531 2.433594 L 119.839844 2.433594 Z "/>
<path style=" stroke:none;fill-rule:nonzero;fill:rgb(28.235294%,13.72549%,45.490196%);fill-opacity:1;" d="M 122.894531 51.082031 L 125.949219 51.082031 L 125.949219 2.433594 L 122.894531 2.433594 Z "/>
<path style=" stroke:none;fill-rule:nonzero;fill:rgb(28.235294%,12.54902%,44.705882%);fill-opacity:1;" d="M 125.949219 51.082031 L 129.003906 51.082031 L 129.003906 2.433594 L 125.949219 2.433594 Z "/>
<path style=" stroke:none;fill-rule:nonzero;fill:rgb(28.235294%,15.294118%,47.058824%);fill-opacity:1;" d="M 129 51.082031 L 132.054688 51.082031 L 132.054688 2.433594 L 129 2.433594 Z "/>
<path style=" stroke:none;fill-rule:nonzero;fill:rgb(28.235294%,12.941176%,45.098039%);fill-opacity:1;" d="M 132.054688 51.082031 L 135.109375 51.082031 L 135.109375 2.433594 L 132.054688 2.433594 Z "/>
<path style=" stroke:none;fill-rule:nonzero;fill:rgb(28.235294%,15.686275%,47.058824%);fill-opacity:1;" d="M 135.109375 51.082031 L 138.164062 51.082031 L 138.164062 2.433594 L 135.109375 2.433594 Z "/>
<path style=" stroke:none;fill-rule:nonzero;fill:rgb(28.235294%,14.117647%,45.882353%);fill-opacity:1;" d="M 138.164062 51.082031 L 141.21875 51.082031 L 141.21875 2.433594 L 138.164062 2.433594 Z "/>
<path style=" stroke:none;fill-rule:nonzero;fill:rgb(27.843137%,16.470588%,47.843137%);fill-opacity:1;" d="M 141.21875 51.082031 L 144.273438 51.082031 L 144.273438 2.433594 L 141.21875 2.433594 Z "/>
<path style=" stroke:none;fill-rule:nonzero;fill:rgb(28.235294%,14.117647%,45.882353%);fill-opacity:1;" d="M 144.269531 51.082031 L 147.324219 51.082031 L 147.324219 2.433594 L 144.269531 2.433594 Z "/>
<path style=" stroke:none;fill-rule:nonzero;fill:rgb(28.235294%,12.941176%,44.705882%);fill-opacity:1;" d="M 147.324219 51.082031 L 150.378906 51.082031 L 150.378906 2.433594 L 147.324219 2.433594 Z "/>
<path style=" stroke:none;fill-rule:nonzero;fill:rgb(27.843137%,17.647059%,48.235294%);fill-opacity:1;" d="M 150.378906 51.082031 L 153.433594 51.082031 L 153.433594 2.433594 L 150.378906 2.433594 Z "/>
<path style=" stroke:none;fill-rule:nonzero;fill:rgb(28.235294%,14.901961%,46.666667%);fill-opacity:1;" d="M 153.433594 51.082031 L 156.488281 51.082031 L 156.488281 2.433594 L 153.433594 2.433594 Z "/>
<path style=" stroke:none;fill-rule:nonzero;fill:rgb(27.45098%,20%,49.803922%);fill-opacity:1;" d="M 156.488281 51.082031 L 159.542969 51.082031 L 159.542969 2.433594 L 156.488281 2.433594 Z "/>
<path style=" stroke:none;fill-rule:nonzero;fill:rgb(27.843137%,16.470588%,47.843137%);fill-opacity:1;" d="M 159.539062 51.082031 L 162.59375 51.082031 L 162.59375 2.433594 L 159.539062 2.433594 Z "/>
<path style=" stroke:none;fill-rule:nonzero;fill:rgb(27.45098%,20%,49.803922%);fill-opacity:1;" d="M 162.59375 51.082031 L 165.648438 51.082031 L 165.648438 2.433594 L 162.59375 2.433594 Z "/>
<path style=" stroke:none;fill-rule:nonzero;fill:rgb(27.058824%,21.568627%,50.588235%);fill-opacity:1;" d="M 165.648438 51.082031 L 168.703125 51.082031 L 168.703125 2.433594 L 165.648438 2.433594 Z "/>
<path style=" stroke:none;fill-rule:nonzero;fill:rgb(27.058824%,21.568627%,50.588235%);fill-opacity:1;" d="M 168.703125 51.082031 L 171.757812 51.082031 L 171.757812 2.433594 L 168.703125 2.433594 Z "/>
<path style=" stroke:none;fill-rule:nonzero;fill:rgb(25.882353%,25.490196%,52.54902%);fill-opacity:1;" d="M 171.757812 51.082031 L 174.8125 51.082031 L 174.8125 2.433594 L 171.757812 2.433594 Z "/>
<path style=" stroke:none;fill-rule:nonzero;fill:rgb(26.27451%,23.921569%,51.764706%);fill-opacity:1;" d="M 174.808594 51.082031 L 177.863281 51.082031 L 177.863281 2.433594 L 174.808594 2.433594 Z "/>
<path style=" stroke:none;fill-rule:nonzero;fill:rgb(25.882353%,25.490196%,52.54902%);fill-opacity:1;" d="M 177.863281 51.082031 L 180.917969 51.082031 L 180.917969 2.433594 L 177.863281 2.433594 Z "/>
<path style=" stroke:none;fill-rule:nonzero;fill:rgb(24.705882%,27.843137%,53.333333%);fill-opacity:1;" d="M 180.917969 51.082031 L 183.972656 51.082031 L 183.972656 2.433594 L 180.917969 2.433594 Z "/>
<path style=" stroke:none;fill-rule:nonzero;fill:rgb(25.098039%,27.058824%,53.333333%);fill-opacity:1;" d="M 183.972656 51.082031 L 187.027344 51.082031 L 187.027344 2.433594 L 183.972656 2.433594 Z "/>
<path style=" stroke:none;fill-rule:nonzero;fill:rgb(24.313725%,28.627451%,53.72549%);fill-opacity:1;" d="M 187.027344 51.082031 L 190.082031 51.082031 L 190.082031 2.433594 L 187.027344 2.433594 Z "/>
<path style=" stroke:none;fill-rule:nonzero;fill:rgb(23.137255%,31.764706%,54.509804%);fill-opacity:1;" d="M 190.078125 51.082031 L 193.132812 51.082031 L 193.132812 2.433594 L 190.078125 2.433594 Z "/>
<path style=" stroke:none;fill-rule:nonzero;fill:rgb(23.529412%,30.980392%,54.117647%);fill-opacity:1;" d="M 193.132812 51.082031 L 196.1875 51.082031 L 196.1875 2.433594 L 193.132812 2.433594 Z "/>
<path style=" stroke:none;fill-rule:nonzero;fill:rgb(23.137255%,31.764706%,54.509804%);fill-opacity:1;" d="M 196.1875 51.082031 L 199.242188 51.082031 L 199.242188 2.433594 L 196.1875 2.433594 Z "/>
<path style=" stroke:none;fill-rule:nonzero;fill:rgb(23.529412%,31.372549%,54.509804%);fill-opacity:1;" d="M 199.242188 51.082031 L 202.296875 51.082031 L 202.296875 2.433594 L 199.242188 2.433594 Z "/>
<path style=" stroke:none;fill-rule:nonzero;fill:rgb(23.921569%,30.588235%,54.117647%);fill-opacity:1;" d="M 202.292969 51.082031 L 205.347656 51.082031 L 205.347656 2.433594 L 202.292969 2.433594 Z "/>
<path style=" stroke:none;fill-rule:nonzero;fill:rgb(22.352941%,33.333333%,54.901961%);fill-opacity:1;" d="M 205.347656 51.082031 L 208.402344 51.082031 L 208.402344 2.433594 L 205.347656 2.433594 Z "/>
<path style=" stroke:none;fill-rule:nonzero;fill:rgb(22.745098%,32.54902%,54.509804%);fill-opacity:1;" d="M 208.402344 51.082031 L 211.457031 51.082031 L 211.457031 2.433594 L 208.402344 2.433594 Z "/>
<path style=" stroke:none;fill-rule:nonzero;fill:rgb(21.568627%,35.294118%,54.901961%);fill-opacity:1;" d="M 211.457031 51.082031 L 214.511719 51.082031 L 214.511719 2.433594 L 211.457031 2.433594 Z "/>
<path style=" stroke:none;fill-rule:nonzero;fill:rgb(21.960784%,34.901961%,54.901961%);fill-opacity:1;" d="M 214.511719 51.082031 L 217.566406 51.082031 L 217.566406 2.433594 L 214.511719 2.433594 Z "/>
<path style=" stroke:none;fill-rule:nonzero;fill:rgb(20%,38.823529%,55.294118%);fill-opacity:1;" d="M 217.5625 51.082031 L 220.617188 51.082031 L 220.617188 2.433594 L 217.5625 2.433594 Z "/>
<path style=" stroke:none;fill-rule:nonzero;fill:rgb(19.215686%,40%,55.686275%);fill-opacity:1;" d="M 220.617188 51.082031 L 223.671875 51.082031 L 223.671875 2.433594 L 220.617188 2.433594 Z "/>
<path style=" stroke:none;fill-rule:nonzero;fill:rgb(19.607843%,39.607843%,55.686275%);fill-opacity:1;" d="M 223.671875 51.082031 L 226.726562 51.082031 L 226.726562 2.433594 L 223.671875 2.433594 Z "/>
<path style=" stroke:none;fill-rule:nonzero;fill:rgb(19.215686%,40%,55.686275%);fill-opacity:1;" d="M 226.726562 51.082031 L 229.78125 51.082031 L 229.78125 2.433594 L 226.726562 2.433594 Z "/>
<path style=" stroke:none;fill-rule:nonzero;fill:rgb(19.215686%,40%,55.686275%);fill-opacity:1;" d="M 229.78125 51.082031 L 232.835938 51.082031 L 232.835938 2.433594 L 229.78125 2.433594 Z "/>
<path style=" stroke:none;fill-rule:nonzero;fill:rgb(12.156863%,61.960784%,53.72549%);fill-opacity:1;" d="M 232.832031 51.082031 L 235.886719 51.082031 L 235.886719 2.433594 L 232.832031 2.433594 Z "/>
<path style=" stroke:none;fill-rule:nonzero;fill:rgb(20.784314%,71.764706%,47.45098%);fill-opacity:1;" d="M 235.886719 51.082031 L 238.941406 51.082031 L 238.941406 2.433594 L 235.886719 2.433594 Z "/>
<path style=" stroke:none;fill-rule:nonzero;fill:rgb(90.980392%,89.411765%,9.803922%);fill-opacity:1;" d="M 238.941406 51.082031 L 241.996094 51.082031 L 241.996094 2.433594 L 238.941406 2.433594 Z "/>
<path style=" stroke:none;fill-rule:nonzero;fill:rgb(96.862745%,90.196078%,12.941176%);fill-opacity:1;" d="M 241.996094 51.082031 L 245.050781 51.082031 L 245.050781 2.433594 L 241.996094 2.433594 Z "/>
<path style=" stroke:none;fill-rule:nonzero;fill:rgb(98.431373%,90.588235%,13.72549%);fill-opacity:1;" d="M 245.050781 51.082031 L 248.105469 51.082031 L 248.105469 2.433594 L 245.050781 2.433594 Z "/>
<path style=" stroke:none;fill-rule:nonzero;fill:rgb(91.764706%,89.803922%,10.196078%);fill-opacity:1;" d="M 248.101562 51.082031 L 251.15625 51.082031 L 251.15625 2.433594 L 248.101562 2.433594 Z "/>
<path style=" stroke:none;fill-rule:nonzero;fill:rgb(87.058824%,89.019608%,9.411765%);fill-opacity:1;" d="M 251.15625 51.082031 L 254.210938 51.082031 L 254.210938 2.433594 L 251.15625 2.433594 Z "/>
<path style=" stroke:none;fill-rule:nonzero;fill:rgb(48.235294%,82.352941%,31.372549%);fill-opacity:1;" d="M 254.210938 51.082031 L 257.265625 51.082031 L 257.265625 2.433594 L 254.210938 2.433594 Z "/>
<path style=" stroke:none;fill-rule:nonzero;fill:rgb(63.921569%,85.490196%,21.568627%);fill-opacity:1;" d="M 257.265625 51.082031 L 260.320312 51.082031 L 260.320312 2.433594 L 257.265625 2.433594 Z "/>
<path style=" stroke:none;fill-rule:nonzero;fill:rgb(69.803922%,86.666667%,17.647059%);fill-opacity:1;" d="M 260.320312 51.082031 L 263.375 51.082031 L 263.375 2.433594 L 260.320312 2.433594 Z "/>
<path style=" stroke:none;fill-rule:nonzero;fill:rgb(47.058824%,81.960784%,32.156863%);fill-opacity:1;" d="M 263.371094 51.082031 L 266.425781 51.082031 L 266.425781 2.433594 L 263.371094 2.433594 Z "/>
<path style=" stroke:none;fill-rule:nonzero;fill:rgb(61.176471%,85.098039%,23.137255%);fill-opacity:1;" d="M 266.425781 51.082031 L 269.480469 51.082031 L 269.480469 2.433594 L 266.425781 2.433594 Z "/>
<path style=" stroke:none;fill-rule:nonzero;fill:rgb(67.058824%,86.27451%,19.215686%);fill-opacity:1;" d="M 269.480469 51.082031 L 272.535156 51.082031 L 272.535156 2.433594 L 269.480469 2.433594 Z "/>
<path style=" stroke:none;fill-rule:nonzero;fill:rgb(52.54902%,83.529412%,28.627451%);fill-opacity:1;" d="M 272.535156 51.082031 L 275.589844 51.082031 L 275.589844 2.433594 L 272.535156 2.433594 Z "/>
<path style=" stroke:none;fill-rule:nonzero;fill:rgb(55.294118%,83.921569%,27.058824%);fill-opacity:1;" d="M 275.589844 51.082031 L 278.644531 51.082031 L 278.644531 2.433594 L 275.589844 2.433594 Z "/>
<path style=" stroke:none;fill-rule:nonzero;fill:rgb(60%,84.705882%,23.921569%);fill-opacity:1;" d="M 278.640625 51.082031 L 281.695312 51.082031 L 281.695312 2.433594 L 278.640625 2.433594 Z "/>
<path style=" stroke:none;fill-rule:nonzero;fill:rgb(49.803922%,82.745098%,30.588235%);fill-opacity:1;" d="M 281.695312 51.082031 L 284.75 51.082031 L 284.75 2.433594 L 281.695312 2.433594 Z "/>
<path style=" stroke:none;fill-rule:nonzero;fill:rgb(59.215686%,84.705882%,24.705882%);fill-opacity:1;" d="M 284.75 51.082031 L 287.804688 51.082031 L 287.804688 2.433594 L 284.75 2.433594 Z "/>
<path style=" stroke:none;fill-rule:nonzero;fill:rgb(61.176471%,85.098039%,23.137255%);fill-opacity:1;" d="M 287.804688 51.082031 L 290.859375 51.082031 L 290.859375 2.433594 L 287.804688 2.433594 Z "/>
<path style=" stroke:none;fill-rule:nonzero;fill:rgb(50.196078%,82.745098%,30.196078%);fill-opacity:1;" d="M 290.859375 51.082031 L 293.914062 51.082031 L 293.914062 2.433594 L 290.859375 2.433594 Z "/>
<path style=" stroke:none;fill-rule:nonzero;fill:rgb(57.647059%,84.313725%,25.490196%);fill-opacity:1;" d="M 293.910156 51.082031 L 296.964844 51.082031 L 296.964844 2.433594 L 293.910156 2.433594 Z "/>
<path style=" stroke:none;fill-rule:nonzero;fill:rgb(66.27451%,86.27451%,20%);fill-opacity:1;" d="M 296.964844 51.082031 L 300.019531 51.082031 L 300.019531 2.433594 L 296.964844 2.433594 Z "/>
<path style=" stroke:none;fill-rule:nonzero;fill:rgb(57.647059%,84.313725%,25.490196%);fill-opacity:1;" d="M 300.019531 51.082031 L 303.074219 51.082031 L 303.074219 2.433594 L 300.019531 2.433594 Z "/>
<path style=" stroke:none;fill-rule:nonzero;fill:rgb(61.960784%,85.098039%,23.137255%);fill-opacity:1;" d="M 303.074219 51.082031 L 306.128906 51.082031 L 306.128906 2.433594 L 303.074219 2.433594 Z "/>
<path style=" stroke:none;fill-rule:nonzero;fill:rgb(61.176471%,85.098039%,23.137255%);fill-opacity:1;" d="M 306.125 51.082031 L 309.179688 51.082031 L 309.179688 2.433594 L 306.125 2.433594 Z "/>
<path style=" stroke:none;fill-rule:nonzero;fill:rgb(53.333333%,83.529412%,28.627451%);fill-opacity:1;" d="M 309.179688 51.082031 L 312.234375 51.082031 L 312.234375 2.433594 L 309.179688 2.433594 Z "/>
<path style=" stroke:none;fill-rule:nonzero;fill:rgb(60.784314%,85.098039%,23.529412%);fill-opacity:1;" d="M 312.234375 51.082031 L 315.289062 51.082031 L 315.289062 2.433594 L 312.234375 2.433594 Z "/>
<path style=" stroke:none;fill-rule:nonzero;fill:rgb(57.254902%,84.313725%,25.882353%);fill-opacity:1;" d="M 315.289062 51.082031 L 318.34375 51.082031 L 318.34375 2.433594 L 315.289062 2.433594 Z "/>
<path style=" stroke:none;fill-rule:nonzero;fill:rgb(52.941176%,83.529412%,28.627451%);fill-opacity:1;" d="M 318.34375 51.082031 L 321.398438 51.082031 L 321.398438 2.433594 L 318.34375 2.433594 Z "/>
<path style=" stroke:none;fill-rule:nonzero;fill:rgb(60.392157%,85.098039%,23.529412%);fill-opacity:1;" d="M 321.394531 51.082031 L 324.449219 51.082031 L 324.449219 2.433594 L 321.394531 2.433594 Z "/>
<path style=" stroke:none;fill-rule:nonzero;fill:rgb(57.647059%,84.313725%,25.490196%);fill-opacity:1;" d="M 324.449219 51.082031 L 327.503906 51.082031 L 327.503906 2.433594 L 324.449219 2.433594 Z "/>
<path style=" stroke:none;fill-rule:nonzero;fill:rgb(54.117647%,83.529412%,27.843137%);fill-opacity:1;" d="M 327.503906 51.082031 L 330.558594 51.082031 L 330.558594 2.433594 L 327.503906 2.433594 Z "/>
<path style=" stroke:none;fill-rule:nonzero;fill:rgb(56.862745%,84.313725%,25.882353%);fill-opacity:1;" d="M 330.558594 51.082031 L 333.613281 51.082031 L 333.613281 2.433594 L 330.558594 2.433594 Z "/>
<path style=" stroke:none;fill-rule:nonzero;fill:rgb(53.72549%,83.529412%,28.235294%);fill-opacity:1;" d="M 333.613281 51.082031 L 336.667969 51.082031 L 336.667969 2.433594 L 333.613281 2.433594 Z "/>
<path style=" stroke:none;fill-rule:nonzero;fill:rgb(56.078431%,83.921569%,26.666667%);fill-opacity:1;" d="M 336.664062 51.082031 L 339.71875 51.082031 L 339.71875 2.433594 L 336.664062 2.433594 Z "/>
<path style=" stroke:none;fill-rule:nonzero;fill:rgb(52.54902%,83.529412%,28.627451%);fill-opacity:1;" d="M 339.71875 51.082031 L 342.773438 51.082031 L 342.773438 2.433594 L 339.71875 2.433594 Z "/>
<path style=" stroke:none;fill-rule:nonzero;fill:rgb(63.137255%,85.490196%,21.960784%);fill-opacity:1;" d="M 342.773438 51.082031 L 345.828125 51.082031 L 345.828125 2.433594 L 342.773438 2.433594 Z "/>
<path style=" stroke:none;fill-rule:nonzero;fill:rgb(50.588235%,82.745098%,30.196078%);fill-opacity:1;" d="M 345.828125 51.082031 L 348.882812 51.082031 L 348.882812 2.433594 L 345.828125 2.433594 Z "/>
<path style=" stroke:none;fill-rule:nonzero;fill:rgb(53.72549%,83.529412%,28.235294%);fill-opacity:1;" d="M 348.882812 51.082031 L 351.9375 51.082031 L 351.9375 2.433594 L 348.882812 2.433594 Z "/>
<path style=" stroke:none;fill-rule:nonzero;fill:rgb(63.921569%,85.490196%,21.568627%);fill-opacity:1;" d="M 351.933594 51.082031 L 354.988281 51.082031 L 354.988281 2.433594 L 351.933594 2.433594 Z "/>
<path style=" stroke:none;fill-rule:nonzero;fill:rgb(51.372549%,83.137255%,29.411765%);fill-opacity:1;" d="M 354.988281 51.082031 L 358.042969 51.082031 L 358.042969 2.433594 L 354.988281 2.433594 Z "/>
<path style=" stroke:none;fill-rule:nonzero;fill:rgb(59.215686%,84.705882%,24.705882%);fill-opacity:1;" d="M 358.042969 51.082031 L 361.097656 51.082031 L 361.097656 2.433594 L 358.042969 2.433594 Z "/>
<path style=" stroke:none;fill-rule:nonzero;fill:rgb(54.117647%,83.529412%,27.843137%);fill-opacity:1;" d="M 361.097656 51.082031 L 364.152344 51.082031 L 364.152344 2.433594 L 361.097656 2.433594 Z "/>
<path style=" stroke:none;fill-rule:nonzero;fill:rgb(58.039216%,84.705882%,25.098039%);fill-opacity:1;" d="M 364.152344 51.082031 L 367.207031 51.082031 L 367.207031 2.433594 L 364.152344 2.433594 Z "/>
<path style=" stroke:none;fill-rule:nonzero;fill:rgb(50.588235%,82.745098%,30.196078%);fill-opacity:1;" d="M 367.203125 51.082031 L 370.257812 51.082031 L 370.257812 2.433594 L 367.203125 2.433594 Z "/>
<path style=" stroke:none;fill-rule:nonzero;fill:rgb(60%,84.705882%,23.921569%);fill-opacity:1;" d="M 370.257812 51.082031 L 373.3125 51.082031 L 373.3125 2.433594 L 370.257812 2.433594 Z "/>
<path style=" stroke:none;fill-rule:nonzero;fill:rgb(53.333333%,83.529412%,28.235294%);fill-opacity:1;" d="M 373.3125 51.082031 L 376.367188 51.082031 L 376.367188 2.433594 L 373.3125 2.433594 Z "/>
<path style=" stroke:none;fill-rule:nonzero;fill:rgb(56.078431%,83.921569%,26.666667%);fill-opacity:1;" d="M 376.367188 51.082031 L 379.421875 51.082031 L 379.421875 2.433594 L 376.367188 2.433594 Z "/>
<path style=" stroke:none;fill-rule:nonzero;fill:rgb(58.039216%,84.705882%,25.098039%);fill-opacity:1;" d="M 379.421875 51.082031 L 382.476562 51.082031 L 382.476562 2.433594 L 379.421875 2.433594 Z "/>
<path style=" stroke:none;fill-rule:nonzero;fill:rgb(53.72549%,83.529412%,28.235294%);fill-opacity:1;" d="M 382.472656 51.082031 L 385.527344 51.082031 L 385.527344 2.433594 L 382.472656 2.433594 Z "/>
<path style=" stroke:none;fill-rule:nonzero;fill:rgb(52.54902%,83.529412%,28.627451%);fill-opacity:1;" d="M 385.527344 51.082031 L 388.582031 51.082031 L 388.582031 2.433594 L 385.527344 2.433594 Z "/>
<path style=" stroke:none;fill-rule:nonzero;fill:rgb(61.960784%,85.098039%,23.137255%);fill-opacity:1;" d="M 388.582031 51.082031 L 391.636719 51.082031 L 391.636719 2.433594 L 388.582031 2.433594 Z "/>
<path style=" stroke:none;fill-rule:nonzero;fill:rgb(56.470588%,84.313725%,26.27451%);fill-opacity:1;" d="M 391.636719 51.082031 L 394.691406 51.082031 L 394.691406 2.433594 L 391.636719 2.433594 Z "/>
<path style=" stroke:none;fill-rule:nonzero;fill:rgb(43.921569%,81.176471%,34.117647%);fill-opacity:1;" d="M 394.691406 51.082031 L 397.746094 51.082031 L 397.746094 2.433594 L 394.691406 2.433594 Z "/>
<path style=" stroke:none;fill-rule:nonzero;fill:rgb(72.156863%,87.058824%,16.078431%);fill-opacity:1;" d="M 397.742188 51.082031 L 400.796875 51.082031 L 400.796875 2.433594 L 397.742188 2.433594 Z "/>
<path style=" stroke:none;fill-rule:nonzero;fill:rgb(54.509804%,83.921569%,27.45098%);fill-opacity:1;" d="M 400.796875 51.082031 L 403.851562 51.082031 L 403.851562 2.433594 L 400.796875 2.433594 Z "/>
<path style=" stroke:none;fill-rule:nonzero;fill:rgb(61.960784%,85.098039%,22.745098%);fill-opacity:1;" d="M 403.851562 51.082031 L 406.90625 51.082031 L 406.90625 2.433594 L 403.851562 2.433594 Z "/>
<path style=" stroke:none;fill-rule:nonzero;fill:rgb(52.941176%,83.529412%,28.627451%);fill-opacity:1;" d="M 406.90625 51.082031 L 409.960938 51.082031 L 409.960938 2.433594 L 406.90625 2.433594 Z "/>
<path style=" stroke:none;fill-rule:nonzero;fill:rgb(52.156863%,83.529412%,29.019608%);fill-opacity:1;" d="M 409.960938 51.082031 L 413.015625 51.082031 L 413.015625 2.433594 L 409.960938 2.433594 Z "/>
<path style=" stroke:none;fill-rule:nonzero;fill:rgb(56.078431%,84.313725%,26.666667%);fill-opacity:1;" d="M 413.011719 51.082031 L 416.066406 51.082031 L 416.066406 2.433594 L 413.011719 2.433594 Z "/>
<path style=" stroke:none;fill-rule:nonzero;fill:rgb(58.039216%,84.705882%,25.098039%);fill-opacity:1;" d="M 416.066406 51.082031 L 419.121094 51.082031 L 419.121094 2.433594 L 416.066406 2.433594 Z "/>
<path style=" stroke:none;fill-rule:nonzero;fill:rgb(46.27451%,81.960784%,32.54902%);fill-opacity:1;" d="M 419.121094 51.082031 L 422.175781 51.082031 L 422.175781 2.433594 L 419.121094 2.433594 Z "/>
<path style=" stroke:none;fill-rule:nonzero;fill:rgb(59.215686%,84.705882%,24.705882%);fill-opacity:1;" d="M 422.175781 51.082031 L 425.230469 51.082031 L 425.230469 2.433594 L 422.175781 2.433594 Z "/>
<path style=" stroke:none;fill-rule:nonzero;fill:rgb(51.372549%,83.137255%,29.803922%);fill-opacity:1;" d="M 425.226562 51.082031 L 428.28125 51.082031 L 428.28125 2.433594 L 425.226562 2.433594 Z "/>
<path style=" stroke:none;fill-rule:nonzero;fill:rgb(52.54902%,83.529412%,28.627451%);fill-opacity:1;" d="M 428.28125 51.082031 L 431.335938 51.082031 L 431.335938 2.433594 L 428.28125 2.433594 Z "/>
<path style=" stroke:none;fill-rule:nonzero;fill:rgb(52.941176%,83.529412%,28.627451%);fill-opacity:1;" d="M 431.335938 51.082031 L 434.390625 51.082031 L 434.390625 2.433594 L 431.335938 2.433594 Z "/>
<path style=" stroke:none;fill-rule:nonzero;fill:rgb(54.117647%,83.921569%,27.843137%);fill-opacity:1;" d="M 434.390625 51.082031 L 437.445312 51.082031 L 437.445312 2.433594 L 434.390625 2.433594 Z "/>
<path style=" stroke:none;fill-rule:nonzero;fill:rgb(54.509804%,83.921569%,27.45098%);fill-opacity:1;" d="M 437.445312 51.082031 L 440.5 51.082031 L 440.5 2.433594 L 437.445312 2.433594 Z "/>
<path style=" stroke:none;fill-rule:nonzero;fill:rgb(60%,84.705882%,23.921569%);fill-opacity:1;" d="M 440.496094 51.082031 L 443.550781 51.082031 L 443.550781 2.433594 L 440.496094 2.433594 Z "/>
<path style=" stroke:none;fill-rule:nonzero;fill:rgb(56.470588%,84.313725%,26.27451%);fill-opacity:1;" d="M 443.550781 51.082031 L 446.605469 51.082031 L 446.605469 2.433594 L 443.550781 2.433594 Z "/>
<path style=" stroke:none;fill-rule:nonzero;fill:rgb(49.411765%,82.745098%,30.980392%);fill-opacity:1;" d="M 446.605469 51.082031 L 449.660156 51.082031 L 449.660156 2.433594 L 446.605469 2.433594 Z "/>
<path style=" stroke:none;fill-rule:nonzero;fill:rgb(63.921569%,85.490196%,21.568627%);fill-opacity:1;" d="M 449.660156 51.082031 L 452.714844 51.082031 L 452.714844 2.433594 L 449.660156 2.433594 Z "/>
<path style=" stroke:none;fill-rule:nonzero;fill:rgb(56.470588%,84.313725%,26.27451%);fill-opacity:1;" d="M 452.714844 51.082031 L 455.769531 51.082031 L 455.769531 2.433594 L 452.714844 2.433594 Z "/>
<path style=" stroke:none;fill-rule:nonzero;fill:rgb(52.156863%,83.529412%,29.019608%);fill-opacity:1;" d="M 455.765625 51.082031 L 458.820312 51.082031 L 458.820312 2.433594 L 455.765625 2.433594 Z "/>
<path style=" stroke:none;fill-rule:nonzero;fill:rgb(61.960784%,85.098039%,22.745098%);fill-opacity:1;" d="M 458.820312 51.082031 L 461.875 51.082031 L 461.875 2.433594 L 458.820312 2.433594 Z "/>
<path style=" stroke:none;fill-rule:nonzero;fill:rgb(57.254902%,84.313725%,25.490196%);fill-opacity:1;" d="M 461.875 51.082031 L 464.929688 51.082031 L 464.929688 2.433594 L 461.875 2.433594 Z "/>
<path style=" stroke:none;fill-rule:nonzero;fill:rgb(50.588235%,82.745098%,30.196078%);fill-opacity:1;" d="M 464.929688 51.082031 L 467.984375 51.082031 L 467.984375 2.433594 L 464.929688 2.433594 Z "/>
<path style=" stroke:none;fill-rule:nonzero;fill:rgb(59.215686%,84.705882%,24.705882%);fill-opacity:1;" d="M 467.984375 51.082031 L 471.039062 51.082031 L 471.039062 2.433594 L 467.984375 2.433594 Z "/>
<path style=" stroke:none;fill-rule:nonzero;fill:rgb(53.333333%,83.529412%,28.235294%);fill-opacity:1;" d="M 471.035156 51.082031 L 474.089844 51.082031 L 474.089844 2.433594 L 471.035156 2.433594 Z "/>
<path style=" stroke:none;fill-rule:nonzero;fill:rgb(53.72549%,83.529412%,28.235294%);fill-opacity:1;" d="M 474.089844 51.082031 L 477.144531 51.082031 L 477.144531 2.433594 L 474.089844 2.433594 Z "/>
<path style=" stroke:none;fill-rule:nonzero;fill:rgb(59.607843%,84.705882%,24.313725%);fill-opacity:1;" d="M 477.144531 51.082031 L 480.199219 51.082031 L 480.199219 2.433594 L 477.144531 2.433594 Z "/>
<path style=" stroke:none;fill-rule:nonzero;fill:rgb(59.215686%,84.705882%,24.705882%);fill-opacity:1;" d="M 480.199219 51.082031 L 483.253906 51.082031 L 483.253906 2.433594 L 480.199219 2.433594 Z "/>
<path style=" stroke:none;fill-rule:nonzero;fill:rgb(51.764706%,83.137255%,29.411765%);fill-opacity:1;" d="M 483.253906 51.082031 L 486.308594 51.082031 L 486.308594 2.433594 L 483.253906 2.433594 Z "/>
<path style=" stroke:none;fill-rule:nonzero;fill:rgb(58.431373%,84.705882%,25.098039%);fill-opacity:1;" d="M 486.304688 51.082031 L 489.359375 51.082031 L 489.359375 2.433594 L 486.304688 2.433594 Z "/>
<path style=" stroke:none;fill-rule:nonzero;fill:rgb(61.176471%,85.098039%,23.529412%);fill-opacity:1;" d="M 489.359375 51.082031 L 492.414062 51.082031 L 492.414062 2.433594 L 489.359375 2.433594 Z "/>
<path style=" stroke:none;fill-rule:nonzero;fill:rgb(53.72549%,83.529412%,28.235294%);fill-opacity:1;" d="M 492.414062 51.082031 L 495.46875 51.082031 L 495.46875 2.433594 L 492.414062 2.433594 Z "/>
<path style=" stroke:none;fill-rule:nonzero;fill:rgb(62.745098%,85.490196%,22.352941%);fill-opacity:1;" d="M 495.46875 51.082031 L 498.523438 51.082031 L 498.523438 2.433594 L 495.46875 2.433594 Z "/>
<path style=" stroke:none;fill-rule:nonzero;fill:rgb(56.078431%,83.921569%,26.666667%);fill-opacity:1;" d="M 498.523438 51.082031 L 501.578125 51.082031 L 501.578125 2.433594 L 498.523438 2.433594 Z "/>
<path style=" stroke:none;fill-rule:nonzero;fill:rgb(51.372549%,83.137255%,29.803922%);fill-opacity:1;" d="M 501.574219 51.082031 L 504.628906 51.082031 L 504.628906 2.433594 L 501.574219 2.433594 Z "/>
<path style=" stroke:none;fill-rule:nonzero;fill:rgb(63.137255%,85.490196%,21.960784%);fill-opacity:1;" d="M 504.628906 51.082031 L 507.683594 51.082031 L 507.683594 2.433594 L 504.628906 2.433594 Z "/>
<path style=" stroke:none;fill-rule:nonzero;fill:rgb(60.392157%,85.098039%,23.921569%);fill-opacity:1;" d="M 507.683594 51.082031 L 510.738281 51.082031 L 510.738281 2.433594 L 507.683594 2.433594 Z "/>
<path style=" stroke:none;fill-rule:nonzero;fill:rgb(56.078431%,84.313725%,26.666667%);fill-opacity:1;" d="M 510.738281 51.082031 L 513.792969 51.082031 L 513.792969 2.433594 L 510.738281 2.433594 Z "/>
<path style=" stroke:none;fill-rule:nonzero;fill:rgb(56.862745%,84.313725%,25.882353%);fill-opacity:1;" d="M 513.792969 51.082031 L 516.847656 51.082031 L 516.847656 2.433594 L 513.792969 2.433594 Z "/>
<path style=" stroke:none;fill-rule:nonzero;fill:rgb(60.392157%,85.098039%,23.921569%);fill-opacity:1;" d="M 516.84375 51.082031 L 519.898438 51.082031 L 519.898438 2.433594 L 516.84375 2.433594 Z "/>
<path style=" stroke:none;fill-rule:nonzero;fill:rgb(46.27451%,81.568627%,32.941176%);fill-opacity:1;" d="M 519.898438 51.082031 L 522.953125 51.082031 L 522.953125 2.433594 L 519.898438 2.433594 Z "/>
<path style=" stroke:none;fill-rule:nonzero;fill:rgb(69.803922%,86.666667%,17.647059%);fill-opacity:1;" d="M 522.953125 51.082031 L 526.007812 51.082031 L 526.007812 2.433594 L 522.953125 2.433594 Z "/>
<path style=" stroke:none;fill-rule:nonzero;fill:rgb(58.039216%,84.705882%,25.098039%);fill-opacity:1;" d="M 526.007812 51.082031 L 529.0625 51.082031 L 529.0625 2.433594 L 526.007812 2.433594 Z "/>
<path style=" stroke:none;fill-rule:nonzero;fill:rgb(49.803922%,82.745098%,30.588235%);fill-opacity:1;" d="M 529.058594 51.082031 L 532.113281 51.082031 L 532.113281 2.433594 L 529.058594 2.433594 Z "/>
<path style=" stroke:none;fill-rule:nonzero;fill:rgb(66.666667%,86.27451%,19.607843%);fill-opacity:1;" d="M 532.113281 51.082031 L 535.167969 51.082031 L 535.167969 2.433594 L 532.113281 2.433594 Z "/>
<path style=" stroke:none;fill-rule:nonzero;fill:rgb(65.098039%,85.882353%,20.784314%);fill-opacity:1;" d="M 535.167969 51.082031 L 538.222656 51.082031 L 538.222656 2.433594 L 535.167969 2.433594 Z "/>
<path style=" stroke:none;fill-rule:nonzero;fill:rgb(46.666667%,81.960784%,32.54902%);fill-opacity:1;" d="M 538.222656 51.082031 L 541.277344 51.082031 L 541.277344 2.433594 L 538.222656 2.433594 Z "/>
<path style=" stroke:none;fill-rule:nonzero;fill:rgb(82.745098%,88.627451%,10.588235%);fill-opacity:1;" d="M 541.277344 51.082031 L 544.332031 51.082031 L 544.332031 2.433594 L 541.277344 2.433594 Z "/>
<path style=" stroke:none;fill-rule:nonzero;fill:rgb(87.45098%,89.019608%,9.411765%);fill-opacity:1;" d="M 544.328125 51.082031 L 547.382812 51.082031 L 547.382812 2.433594 L 544.328125 2.433594 Z "/>
<path style=" stroke:none;fill-rule:nonzero;fill:rgb(80%,88.235294%,11.764706%);fill-opacity:1;" d="M 547.382812 51.082031 L 550.4375 51.082031 L 550.4375 2.433594 L 547.382812 2.433594 Z "/>
<path style=" stroke:none;fill-rule:nonzero;fill:rgb(98.039216%,90.588235%,13.333333%);fill-opacity:1;" d="M 550.4375 51.082031 L 553.492188 51.082031 L 553.492188 2.433594 L 550.4375 2.433594 Z "/>
<path style=" stroke:none;fill-rule:nonzero;fill:rgb(99.215686%,90.588235%,14.509804%);fill-opacity:1;" d="M 553.492188 51.082031 L 556.546875 51.082031 L 556.546875 2.433594 L 553.492188 2.433594 Z "/>
<path style=" stroke:none;fill-rule:nonzero;fill:rgb(99.215686%,90.588235%,14.509804%);fill-opacity:1;" d="M 556.546875 51.082031 L 559.601562 51.082031 L 559.601562 2.433594 L 556.546875 2.433594 Z "/>
<path style=" stroke:none;fill-rule:nonzero;fill:rgb(97.254902%,90.196078%,12.941176%);fill-opacity:1;" d="M 559.597656 51.082031 L 562.652344 51.082031 L 562.652344 2.433594 L 559.597656 2.433594 Z "/>
<path style=" stroke:none;fill-rule:nonzero;fill:rgb(92.941176%,89.803922%,10.588235%);fill-opacity:1;" d="M 562.652344 51.082031 L 565.707031 51.082031 L 565.707031 2.433594 L 562.652344 2.433594 Z "/>
<path style=" stroke:none;fill-rule:nonzero;fill:rgb(88.627451%,89.411765%,9.411765%);fill-opacity:1;" d="M 565.707031 51.082031 L 568.761719 51.082031 L 568.761719 2.433594 L 565.707031 2.433594 Z "/>
<path style=" stroke:none;fill-rule:nonzero;fill:rgb(68.627451%,86.666667%,18.431373%);fill-opacity:1;" d="M 568.761719 51.082031 L 571.816406 51.082031 L 571.816406 2.433594 L 568.761719 2.433594 Z "/>
<path style=" stroke:none;fill-rule:nonzero;fill:rgb(67.843137%,86.27451%,18.823529%);fill-opacity:1;" d="M 571.816406 51.082031 L 574.871094 51.082031 L 574.871094 2.433594 L 571.816406 2.433594 Z "/>
<path style=" stroke:none;fill-rule:nonzero;fill:rgb(54.509804%,83.921569%,27.45098%);fill-opacity:1;" d="M 574.867188 51.082031 L 577.921875 51.082031 L 577.921875 2.433594 L 574.867188 2.433594 Z "/>
<path style=" stroke:none;fill-rule:nonzero;fill:rgb(49.803922%,82.745098%,30.588235%);fill-opacity:1;" d="M 577.921875 51.082031 L 580.976562 51.082031 L 580.976562 2.433594 L 577.921875 2.433594 Z "/>
<path style=" stroke:none;fill-rule:nonzero;fill:rgb(31.372549%,76.862745%,41.568627%);fill-opacity:1;" d="M 580.976562 51.082031 L 584.03125 51.082031 L 584.03125 2.433594 L 580.976562 2.433594 Z "/>
<path style=" stroke:none;fill-rule:nonzero;fill:rgb(18.823529%,70.980392%,48.235294%);fill-opacity:1;" d="M 584.03125 51.082031 L 587.085938 51.082031 L 587.085938 2.433594 L 584.03125 2.433594 Z "/>
<path style=" stroke:none;fill-rule:nonzero;fill:rgb(12.156863%,60.392157%,54.117647%);fill-opacity:1;" d="M 587.085938 51.082031 L 590.140625 51.082031 L 590.140625 2.433594 L 587.085938 2.433594 Z "/>
<path style=" stroke:none;fill-rule:nonzero;fill:rgb(12.54902%,57.254902%,54.901961%);fill-opacity:1;" d="M 590.136719 51.082031 L 593.191406 51.082031 L 593.191406 2.433594 L 590.136719 2.433594 Z "/>
<path style=" stroke:none;fill-rule:nonzero;fill:rgb(19.215686%,40.784314%,55.686275%);fill-opacity:1;" d="M 593.191406 51.082031 L 596.246094 51.082031 L 596.246094 2.433594 L 593.191406 2.433594 Z "/>
<path style=" stroke:none;fill-rule:nonzero;fill:rgb(17.254902%,45.098039%,55.686275%);fill-opacity:1;" d="M 596.246094 51.082031 L 599.300781 51.082031 L 599.300781 2.433594 L 596.246094 2.433594 Z "/>
<path style=" stroke:none;fill-rule:nonzero;fill:rgb(19.607843%,39.215686%,55.686275%);fill-opacity:1;" d="M 599.300781 51.082031 L 602.355469 51.082031 L 602.355469 2.433594 L 599.300781 2.433594 Z "/>
<path style=" stroke:none;fill-rule:nonzero;fill:rgb(25.882353%,25.098039%,52.54902%);fill-opacity:1;" d="M 602.355469 51.082031 L 605.410156 51.082031 L 605.410156 2.433594 L 602.355469 2.433594 Z "/>
<path style=" stroke:none;fill-rule:nonzero;fill:rgb(25.882353%,24.705882%,52.156863%);fill-opacity:1;" d="M 605.40625 51.082031 L 608.460938 51.082031 L 608.460938 2.433594 L 605.40625 2.433594 Z "/>
<path style=" stroke:none;fill-rule:nonzero;fill:rgb(24.705882%,28.235294%,53.72549%);fill-opacity:1;" d="M 608.460938 51.082031 L 611.515625 51.082031 L 611.515625 2.433594 L 608.460938 2.433594 Z "/>
<path style=" stroke:none;fill-rule:nonzero;fill:rgb(28.235294%,11.372549%,43.529412%);fill-opacity:1;" d="M 611.515625 51.082031 L 614.570312 51.082031 L 614.570312 2.433594 L 611.515625 2.433594 Z "/>
<path style=" stroke:none;fill-rule:nonzero;fill:rgb(28.235294%,15.686275%,47.058824%);fill-opacity:1;" d="M 614.570312 51.082031 L 617.625 51.082031 L 617.625 2.433594 L 614.570312 2.433594 Z "/>
<path style=" stroke:none;fill-rule:nonzero;fill:rgb(28.235294%,9.803922%,41.960784%);fill-opacity:1;" d="M 617.625 51.082031 L 620.679688 51.082031 L 620.679688 2.433594 L 617.625 2.433594 Z "/>
<path style=" stroke:none;fill-rule:nonzero;fill:rgb(28.235294%,13.333333%,45.098039%);fill-opacity:1;" d="M 620.675781 51.082031 L 623.730469 51.082031 L 623.730469 2.433594 L 620.675781 2.433594 Z "/>
<path style=" stroke:none;fill-rule:nonzero;fill:rgb(28.235294%,8.627451%,40.784314%);fill-opacity:1;" d="M 623.730469 51.082031 L 626.785156 51.082031 L 626.785156 2.433594 L 623.730469 2.433594 Z "/>
<path style=" stroke:none;fill-rule:nonzero;fill:rgb(27.843137%,7.45098%,39.607843%);fill-opacity:1;" d="M 626.785156 51.082031 L 629.839844 51.082031 L 629.839844 2.433594 L 626.785156 2.433594 Z "/>
<path style=" stroke:none;fill-rule:nonzero;fill:rgb(27.843137%,7.058824%,39.215686%);fill-opacity:1;" d="M 629.839844 51.082031 L 632.894531 51.082031 L 632.894531 2.433594 L 629.839844 2.433594 Z "/>
<path style=" stroke:none;fill-rule:nonzero;fill:rgb(27.843137%,5.490196%,38.039216%);fill-opacity:1;" d="M 632.894531 51.082031 L 635.949219 51.082031 L 635.949219 2.433594 L 632.894531 2.433594 Z "/>
<path style=" stroke:none;fill-rule:nonzero;fill:rgb(27.843137%,7.45098%,39.607843%);fill-opacity:1;" d="M 635.945312 51.082031 L 639 51.082031 L 639 2.433594 L 635.945312 2.433594 Z "/>
<path style=" stroke:none;fill-rule:nonzero;fill:rgb(27.45098%,3.137255%,36.078431%);fill-opacity:1;" d="M 639 51.082031 L 642.054688 51.082031 L 642.054688 2.433594 L 639 2.433594 Z "/>
<path style=" stroke:none;fill-rule:nonzero;fill:rgb(27.843137%,5.098039%,37.647059%);fill-opacity:1;" d="M 642.054688 51.082031 L 645.109375 51.082031 L 645.109375 2.433594 L 642.054688 2.433594 Z "/>
<path style=" stroke:none;fill-rule:nonzero;fill:rgb(27.843137%,5.098039%,37.647059%);fill-opacity:1;" d="M 645.109375 51.082031 L 648.164062 51.082031 L 648.164062 2.433594 L 645.109375 2.433594 Z "/>
<path style=" stroke:none;fill-rule:nonzero;fill:rgb(27.843137%,6.666667%,39.215686%);fill-opacity:1;" d="M 648.160156 51.082031 L 651.214844 51.082031 L 651.214844 2.433594 L 648.160156 2.433594 Z "/>
<path style=" stroke:none;fill-rule:nonzero;fill:rgb(27.45098%,3.137255%,36.078431%);fill-opacity:1;" d="M 651.214844 51.082031 L 654.269531 51.082031 L 654.269531 2.433594 L 651.214844 2.433594 Z "/>
<path style=" stroke:none;fill-rule:nonzero;fill:rgb(27.843137%,6.666667%,39.215686%);fill-opacity:1;" d="M 654.269531 51.082031 L 657.324219 51.082031 L 657.324219 2.433594 L 654.269531 2.433594 Z "/>
<path style=" stroke:none;fill-rule:nonzero;fill:rgb(27.45098%,3.921569%,36.470588%);fill-opacity:1;" d="M 657.324219 51.082031 L 660.378906 51.082031 L 660.378906 2.433594 L 657.324219 2.433594 Z "/>
<path style=" stroke:none;fill-rule:nonzero;fill:rgb(27.45098%,3.921569%,36.470588%);fill-opacity:1;" d="M 660.378906 51.082031 L 663.433594 51.082031 L 663.433594 2.433594 L 660.378906 2.433594 Z "/>
<path style=" stroke:none;fill-rule:nonzero;fill:rgb(27.45098%,4.313725%,36.862745%);fill-opacity:1;" d="M 663.429688 51.082031 L 666.484375 51.082031 L 666.484375 2.433594 L 663.429688 2.433594 Z "/>
<path style=" stroke:none;fill-rule:nonzero;fill:rgb(27.45098%,3.921569%,36.470588%);fill-opacity:1;" d="M 666.484375 51.082031 L 669.539062 51.082031 L 669.539062 2.433594 L 666.484375 2.433594 Z "/>
<path style=" stroke:none;fill-rule:nonzero;fill:rgb(27.058824%,1.960784%,34.901961%);fill-opacity:1;" d="M 669.539062 51.082031 L 672.59375 51.082031 L 672.59375 2.433594 L 669.539062 2.433594 Z "/>
<path style=" stroke:none;fill-rule:nonzero;fill:rgb(27.45098%,3.137255%,36.078431%);fill-opacity:1;" d="M 672.59375 51.082031 L 675.648438 51.082031 L 675.648438 2.433594 L 672.59375 2.433594 Z "/>
<path style=" stroke:none;fill-rule:nonzero;fill:rgb(27.45098%,3.137255%,36.078431%);fill-opacity:1;" d="M 675.648438 51.082031 L 678.703125 51.082031 L 678.703125 2.433594 L 675.648438 2.433594 Z "/>
<path style=" stroke:none;fill-rule:nonzero;fill:rgb(27.45098%,3.137255%,36.078431%);fill-opacity:1;" d="M 678.699219 51.082031 L 681.753906 51.082031 L 681.753906 2.433594 L 678.699219 2.433594 Z "/>
<path style=" stroke:none;fill-rule:nonzero;fill:rgb(27.45098%,2.745098%,35.294118%);fill-opacity:1;" d="M 681.753906 51.082031 L 684.808594 51.082031 L 684.808594 2.433594 L 681.753906 2.433594 Z "/>
<path style=" stroke:none;fill-rule:nonzero;fill:rgb(27.45098%,2.745098%,35.686275%);fill-opacity:1;" d="M 684.808594 51.082031 L 687.863281 51.082031 L 687.863281 2.433594 L 684.808594 2.433594 Z "/>
<path style=" stroke:none;fill-rule:nonzero;fill:rgb(27.45098%,2.352941%,35.294118%);fill-opacity:1;" d="M 687.863281 51.082031 L 690.917969 51.082031 L 690.917969 2.433594 L 687.863281 2.433594 Z "/>
<path style=" stroke:none;fill-rule:nonzero;fill:rgb(27.45098%,3.529412%,36.470588%);fill-opacity:1;" d="M 690.917969 51.082031 L 693.972656 51.082031 L 693.972656 2.433594 L 690.917969 2.433594 Z "/>
<path style=" stroke:none;fill-rule:nonzero;fill:rgb(27.058824%,1.960784%,34.509804%);fill-opacity:1;" d="M 693.96875 51.082031 L 697.023438 51.082031 L 697.023438 2.433594 L 693.96875 2.433594 Z "/>
<path style=" stroke:none;fill-rule:nonzero;fill:rgb(27.45098%,3.529412%,36.078431%);fill-opacity:1;" d="M 697.023438 51.082031 L 700.078125 51.082031 L 700.078125 2.433594 L 697.023438 2.433594 Z "/>
<path style=" stroke:none;fill-rule:nonzero;fill:rgb(28.235294%,7.843137%,40.392157%);fill-opacity:1;" d="M 700.078125 51.082031 L 703.132812 51.082031 L 703.132812 2.433594 L 700.078125 2.433594 Z "/>
<path style=" stroke:none;fill-rule:nonzero;fill:rgb(27.058824%,1.960784%,34.901961%);fill-opacity:1;" d="M 703.132812 51.082031 L 706.1875 51.082031 L 706.1875 2.433594 L 703.132812 2.433594 Z "/>
<path style=" stroke:none;fill-rule:nonzero;fill:rgb(27.843137%,5.098039%,37.647059%);fill-opacity:1;" d="M 706.1875 51.082031 L 709.242188 51.082031 L 709.242188 2.433594 L 706.1875 2.433594 Z "/>
<path style=" stroke:none;fill-rule:nonzero;fill:rgb(27.45098%,3.137255%,35.686275%);fill-opacity:1;" d="M 709.238281 51.082031 L 712.292969 51.082031 L 712.292969 2.433594 L 709.238281 2.433594 Z "/>
<path style=" stroke:none;fill-rule:nonzero;fill:rgb(27.45098%,3.921569%,36.470588%);fill-opacity:1;" d="M 712.292969 51.082031 L 715.347656 51.082031 L 715.347656 2.433594 L 712.292969 2.433594 Z "/>
<path style=" stroke:none;fill-rule:nonzero;fill:rgb(27.45098%,2.745098%,35.686275%);fill-opacity:1;" d="M 715.347656 51.082031 L 718.402344 51.082031 L 718.402344 2.433594 L 715.347656 2.433594 Z "/>
<path style=" stroke:none;fill-rule:nonzero;fill:rgb(27.45098%,3.137255%,36.078431%);fill-opacity:1;" d="M 718.402344 51.082031 L 721.457031 51.082031 L 721.457031 2.433594 L 718.402344 2.433594 Z "/>
<path style=" stroke:none;fill-rule:nonzero;fill:rgb(27.45098%,3.921569%,36.470588%);fill-opacity:1;" d="M 721.457031 51.082031 L 724.511719 51.082031 L 724.511719 2.433594 L 721.457031 2.433594 Z "/>
<path style=" stroke:none;fill-rule:nonzero;fill:rgb(27.058824%,2.352941%,34.901961%);fill-opacity:1;" d="M 724.507812 51.082031 L 727.5625 51.082031 L 727.5625 2.433594 L 724.507812 2.433594 Z "/>
<path style=" stroke:none;fill-rule:nonzero;fill:rgb(27.45098%,3.529412%,36.078431%);fill-opacity:1;" d="M 727.5625 51.082031 L 730.617188 51.082031 L 730.617188 2.433594 L 727.5625 2.433594 Z "/>
<path style=" stroke:none;fill-rule:nonzero;fill:rgb(27.45098%,2.745098%,35.686275%);fill-opacity:1;" d="M 730.617188 51.082031 L 733.671875 51.082031 L 733.671875 2.433594 L 730.617188 2.433594 Z "/>
<path style=" stroke:none;fill-rule:nonzero;fill:rgb(27.45098%,3.137255%,36.078431%);fill-opacity:1;" d="M 733.671875 51.082031 L 736.726562 51.082031 L 736.726562 2.433594 L 733.671875 2.433594 Z "/>
<path style=" stroke:none;fill-rule:nonzero;fill:rgb(27.45098%,2.745098%,35.686275%);fill-opacity:1;" d="M 736.726562 51.082031 L 739.78125 51.082031 L 739.78125 2.433594 L 736.726562 2.433594 Z "/>
<path style=" stroke:none;fill-rule:nonzero;fill:rgb(27.45098%,2.352941%,35.294118%);fill-opacity:1;" d="M 739.777344 51.082031 L 742.832031 51.082031 L 742.832031 2.433594 L 739.777344 2.433594 Z "/>
<path style=" stroke:none;fill-rule:nonzero;fill:rgb(27.45098%,3.529412%,36.078431%);fill-opacity:1;" d="M 742.832031 51.082031 L 745.886719 51.082031 L 745.886719 2.433594 L 742.832031 2.433594 Z "/>
<path style=" stroke:none;fill-rule:nonzero;fill:rgb(27.058824%,1.960784%,34.901961%);fill-opacity:1;" d="M 745.886719 51.082031 L 748.941406 51.082031 L 748.941406 2.433594 L 745.886719 2.433594 Z "/>
<path style=" stroke:none;fill-rule:nonzero;fill:rgb(28.235294%,8.627451%,40.784314%);fill-opacity:1;" d="M 748.941406 51.082031 L 751.996094 51.082031 L 751.996094 2.433594 L 748.941406 2.433594 Z "/>
<path style=" stroke:none;fill-rule:nonzero;fill:rgb(27.45098%,2.352941%,35.294118%);fill-opacity:1;" d="M 751.992188 51.082031 L 755.046875 51.082031 L 755.046875 2.433594 L 751.992188 2.433594 Z "/>
<path style=" stroke:none;fill-rule:nonzero;fill:rgb(27.058824%,1.568627%,34.117647%);fill-opacity:1;" d="M 755.046875 51.082031 L 758.101562 51.082031 L 758.101562 2.433594 L 755.046875 2.433594 Z "/>
<path style=" stroke:none;fill-rule:nonzero;fill:rgb(27.058824%,1.960784%,34.509804%);fill-opacity:1;" d="M 758.101562 51.082031 L 761.15625 51.082031 L 761.15625 2.433594 L 758.101562 2.433594 Z "/>
<path style=" stroke:none;fill-rule:nonzero;fill:rgb(27.45098%,2.745098%,35.294118%);fill-opacity:1;" d="M 761.15625 51.082031 L 764.210938 51.082031 L 764.210938 2.433594 L 761.15625 2.433594 Z "/>
<path style=" stroke:none;fill-rule:nonzero;fill:rgb(26.666667%,0.784314%,33.72549%);fill-opacity:1;" d="M 764.210938 51.082031 L 767.265625 51.082031 L 767.265625 2.433594 L 764.210938 2.433594 Z "/>
<path style=" stroke:none;fill-rule:nonzero;fill:rgb(27.058824%,1.960784%,34.901961%);fill-opacity:1;" d="M 767.261719 51.082031 L 770.316406 51.082031 L 770.316406 2.433594 L 767.261719 2.433594 Z "/>
<path style=" stroke:none;fill-rule:nonzero;fill:rgb(27.058824%,1.960784%,34.509804%);fill-opacity:1;" d="M 770.316406 51.082031 L 773.371094 51.082031 L 773.371094 2.433594 L 770.316406 2.433594 Z "/>
<path style=" stroke:none;fill-rule:nonzero;fill:rgb(27.058824%,1.568627%,34.117647%);fill-opacity:1;" d="M 773.371094 51.082031 L 776.425781 51.082031 L 776.425781 2.433594 L 773.371094 2.433594 Z "/>
<path style=" stroke:none;fill-rule:nonzero;fill:rgb(27.058824%,1.568627%,34.509804%);fill-opacity:1;" d="M 776.425781 51.082031 L 779.480469 51.082031 L 779.480469 2.433594 L 776.425781 2.433594 Z "/>
<path style=" stroke:none;fill-rule:nonzero;fill:rgb(27.058824%,1.176471%,34.117647%);fill-opacity:1;" d="M 779.480469 51.082031 L 782.535156 51.082031 L 782.535156 2.433594 L 779.480469 2.433594 Z "/>
<path style=" stroke:none;fill-rule:nonzero;fill:rgb(27.45098%,2.745098%,35.686275%);fill-opacity:1;" d="M 782.53125 51.082031 L 785.585938 51.082031 L 785.585938 2.433594 L 782.53125 2.433594 Z "/>
<path style=" stroke:none;fill-rule:nonzero;fill:rgb(26.666667%,0.392157%,32.941176%);fill-opacity:1;" d="M 785.585938 51.082031 L 788.640625 51.082031 L 788.640625 2.433594 L 785.585938 2.433594 Z "/>
<path style=" stroke:none;fill-rule:nonzero;fill:rgb(27.45098%,3.529412%,36.470588%);fill-opacity:1;" d="M 788.640625 51.082031 L 791.695312 51.082031 L 791.695312 2.433594 L 788.640625 2.433594 Z "/>
</g>
</svg>
